# AST/ASF file generated using VICON BodyLanguage
# -----------------------------------------------
:version 1.10
:name VICON
:units
  mass 1.0
  length 0.45
  angle deg
:documentation
   .ast/.asf automatically generated from VICON data using
   VICON BodyBuilder and BodyLanguage model FoxedUp or BRILLIANT.MOD
:root
   order TX TY TZ RX RY RZ
   axis XYZ
   position 0 0 0  
   orientation 0 0 0 
:bonedata
  begin
     id 1 
     name lhipjoint
     direction 0.643824 -0.71708 0.266994 
     length 2.52133 
     axis 0 0 0  XYZ
  end
  begin
     id 2 
     name lfemur
     direction 0.34202 -0.939693 0  
     length 7.51824  
     axis 0 0 20  XYZ
    dof rx ry rz
    limits (-160.0 20.0)
           (-70.0 70.0)
           (-60.0 70.0)
  end
  begin
     id 3 
     name ltibia
     direction 0.34202 -0.939693 0   
     length 7.3685   
     axis 0 0 20   XYZ
    dof rx
    limits (-10.0 170.0)
  end
  begin
     id 4 
     name lfoot
     direction 0.105419 -0.289636 0.951314   
     length 2.20972   
     axis -90 7.62852e-016 20   XYZ
    dof rx rz
    limits (-45.0 90.0)
           (-70.0 20.0)
  end
  begin
     id 5 
     name ltoes
     direction 1.53549e-011 -4.21833e-011 1   
     length 1.10139   
     axis -90 7.62852e-016 20   XYZ
    dof rx
    limits (-90.0 20.0)
  end
  begin
     id 6 
     name rhipjoint
     direction -0.608823 -0.743445 0.276811   
     length 2.43192  
     axis 0 0 0  XYZ 
  end
  begin
     id 7 
     name rfemur
     direction -0.34202 -0.939693 0   
     length 7.69715   
     axis 0 0 -20   XYZ
    dof rx ry rz
    limits (-160.0 20.0)
           (-70.0 70.0)
           (-70.0 60.0)
  end
  begin
     id 8 
     name rtibia
     direction -0.34202 -0.939693 0   
     length 7.44924   
     axis 0 0 -20   XYZ
    dof rx
    limits (-10.0 170.0)
 end
 begin
     id 9 
     name rfoot
     direction -0.103614 -0.284677 0.953007   
     length 2.22623  
     axis -90 -7.62852e-016 -20   XYZ
    dof rx rz
    limits (-45.0 90.0)
           (-20.0 70.0)
  end
  begin
     id 10 
     name rtoes
     direction -1.53537e-011 -4.22026e-011 1   
     length 1.11   
     axis -90 -7.62852e-016 -20   XYZ
    dof rx
    limits (-90.0 20.0)
  end
  begin
     id 11 
     name lowerback
     direction -0.0101212 0.99662 -0.0815298   
     length 2.08277   
     axis 0 0 0   XYZ
    dof rx ry rz
    limits (-20.0 45.0)
           (-30.0 30.0)
           (-30.0 30.0)
  end
  begin
     id 12 
     name upperback
     direction 0.024314 0.999591 -0.0150645   
     length 2.08524   
     axis 0 0 0   XYZ
    dof rx ry rz
    limits (-20.0 45.0)
           (-30.0 30.0)
           (-30.0 30.0)
  end
  begin
     id 13 
     name thorax
     direction 0.0285959 0.999323 0.0231357   
     length 2.09645   
     axis 0 0 0   XYZ
    dof rx ry rz
    limits (-20.0 45.0)
           (-30.0 30.0)
           (-30.0 30.0)
  end
  begin
     id 14 
     name lowerneck
     direction -0.065512 0.979301 0.191515   
     length 1.63798   
     axis 0 0 0   XYZ
    dof rx ry rz
    limits (-20.0 45.0)
           (-30.0 30.0)
           (-30.0 30.0)
  end
  begin
     id 15 
     name upperneck
     direction 0.0498479 0.98191 -0.182667   
     length 1.68731   
     axis 0 0 0   XYZ
    dof rx ry rz
    limits (-20.0 45.0)
           (-30.0 30.0)
           (-30.0 30.0)
  end
  begin
     id 16
     name head
     direction 0.0230358 0.996257 -0.0833175  
     length 1.69785  
     axis 0 0 0   XYZ
    dof rx ry rz
    limits (-20.0 45.0)
           (-30.0 30.0)
           (-30.0 30.0)
  end
  begin
     id 17 
     name lclavicle
     direction 0.967963 0.201165 -0.150269  
     length 3.63976  
     axis 0 0 0   XYZ
    dof ry rz
    limits (-20.0 10.0)
           (0.0 20.0)
  end
  begin
     id 18 
     name lhumerus
     direction 1 -4.48954e-011 -2.92837e-028   
     length 5.32462   
     axis 180 -30 -90   XYZ
    dof rx ry rz
    limits (-60.0 90.0)
           (-90.0 90.0)
           (-90.0 90.0)
  end
  begin
     id 19
     name lradius
     direction 1 -4.48958e-011 -6.39511e-027   
     length 3.48402   
     axis 180 -30 -90   XYZ
    dof rx
    limits (-10.0 170.0)
  end
  begin
     id 20
     name lwrist
     direction 1 -4.48975e-011 -1.1413e-026   
     length 1.74201   
     axis 6.88575e-015 90 90   XYZ
    dof ry
    limits (-180.0 0.0)
 end
  begin
     id 21 
     name lhand
     direction 1 -4.48899e-011 -2.28192e-026   
     length 0.572476   
     axis 1.45643e-014 90 90   XYZ
    dof rx rz
    limits (-90.0 90.0)
           (-45.0 45.0)
  end
  begin
     id 22 
     name lfingers
     direction 1 -4.49155e-011 -4.5684e-026   
     length 0.461545   
     axis 2.91283e-014 90 90   XYZ
    dof rx
    limits (0.0 90.0)
  end
  begin
     id 23
     name lthumb
     direction 0.707107 -6.34943e-011 0.707107   
     length 0.662688   
     axis -90 45 -2.25915e-014   XYZ
    dof rx rz
    limits (-45.0 45.0)
           (-45.0 45.0)
  end
  begin
     id 24 
     name rclavicle
     direction -0.964103 0.264019 -0.0282629   
     length 3.54491  
     axis 0 0 0   XYZ 
    dof ry rz
    limits (-10.0 20.0)
           (-20.0 0.0)
  end
  begin
     id 25 
     name rhumerus
     direction -1 -4.48964e-011 -2.45032e-027  
     length 5.33589   
     axis 180 30 90   XYZ
    dof rx ry rz
    limits (-90.0 60.0)
           (-90.0 90.0)
           (-90.0 90.0)
  end
  begin
     id 26 
     name rradius
     direction -1 -4.48987e-011 -1.55093e-027   
     length 3.64134   
     axis 180 30 90   XYZ
    dof rx
    limits (-10.0 170.0)
  end
  begin
     id 27 
     name rwrist
     direction -1 -4.4897e-011 -1.14128e-026   
     length 1.82067   
     axis 6.88575e-015 -90 -90   XYZ
    dof ry
    limits (-180.0 0.0)
  end
  begin
     id 28
     name rhand
     direction -1 -4.49021e-011 -2.28301e-026   
     length 0.734811   
     axis 1.45643e-014 -90 -90   XYZ
    dof rx rz
    limits (-90.0 90.0)
           (-45.0 45.0)
  end
  begin
     id 29
     name rfingers
     direction -1 -4.48862e-011 -4.56319e-026   
     length 0.592424   
     axis 2.91283e-014 -90 -90   XYZ
    dof rx
    limits (0.0 90.0)
  end
  begin
     id 30
     name rthumb
     direction -0.707107 -6.34978e-011 0.707107   
     length 0.850605   
     axis -90 -45 2.25915e-014   XYZ
    dof rx rz
    limits (-45.0 45.0)
           (-45.0 45.0)
  end
:hierarchy
  begin
    root lhipjoint rhipjoint lowerback
    lhipjoint lfemur
    lfemur ltibia
    ltibia lfoot
    lfoot ltoes
    rhipjoint rfemur
    rfemur rtibia
    rtibia rfoot
    rfoot rtoes
    lowerback upperback
    upperback thorax
    thorax lowerneck lclavicle rclavicle
    lowerneck upperneck
    upperneck head
    lclavicle lhumerus
    lhumerus lradius
    lradius lwrist
    lwrist lhand lthumb
    lhand lfingers
    rclavicle rhumerus
    rhumerus rradius
    rradius rwrist
    rwrist rhand rthumb
    rhand rfingers
  end

#!OML:ASF F:\VICON\USERDATA\INSTALL\rory3\rory3.ASF
:FULLY-SPECIFIED
:DEGREES
65
root 12.2923 17.7455 3.16519 28.3166 -87.8782 -20.6869
lowerback 0.896829 -0.502111 -1.99877
upperback -1.31369 -0.684406 2.36019
thorax -1.79968 -0.304903 3.56638
lowerneck -19.6494 -1.35313 -10.4566
upperneck 37.0638 0.22578 1.57529
head 16.753 -1.58742 2.45868
rclavicle 2.73329e-015 9.14409e-015
rhumerus -32.5632 -9.45822 -77.7817
rradius 33.3098
rwrist 18.9949
rhand -22.3689 2.10119
rfingers 7.12502
rthumb 4.05255 -27.84
lclavicle 2.73329e-015 9.14409e-015
lhumerus -28.3332 8.2729 84.598
lradius 24.8982
lwrist -9.94475
lhand -13.0791 26.0063
lfingers 7.12502
lthumb 13.0169 55.5802
rfemur -21.2438 0.423929 23.9966
rtibia 34.2224
rfoot -21.1145 -7.40217
rtoes 13.5612
lfemur -10.7674 -2.00088 -18.4045
ltibia 24.6137
lfoot -17.0901 5.89904
ltoes -17.0386
66
root 12.2876 17.7428 3.15489 27.2567 -87.9987 -19.655
lowerback 1.00431 -0.529973 -2.2027
upperback -1.24676 -0.725861 2.37778
thorax -1.78571 -0.323471 3.70159
lowerneck -19.6245 -1.35281 -10.4416
upperneck 37.2823 0.277074 1.3628
head 16.8624 -1.61427 2.3711
rclavicle 3.77691e-015 1.59028e-014
rhumerus -32.4889 -9.433 -77.8179
rradius 33.2027
rwrist 19.5595
rhand -22.431 2.28972
rfingers 7.12502
rthumb 3.99257 -27.6526
lclavicle 3.77691e-015 1.59028e-014
lhumerus -28.3024 8.17626 84.6745
lradius 25.4007
lwrist -9.19919
lhand -13.2018 26.1383
lfingers 7.12502
lthumb 12.8987 55.7197
rfemur -21.2263 0.4633 23.9477
rtibia 34.279
rfoot -21.1082 -7.37481
rtoes 13.2299
lfemur -10.741 -1.83276 -18.4367
ltibia 24.6936
lfoot -17.3035 5.55813
ltoes -14.7224
67
root 12.2811 17.7412 3.14131 26.6901 -88.1647 -19.0845
lowerback 1.04918 -0.539624 -2.46828
upperback -1.16912 -0.743523 2.43343
thorax -1.7261 -0.330389 3.90982
lowerneck -19.606 -1.37028 -10.5566
upperneck 37.4305 0.336281 1.20824
head 16.9374 -1.64293 2.33275
rclavicle -2.13694e-015 -2.06736e-014
rhumerus -32.4171 -9.53758 -77.7799
rradius 33.1323
rwrist 20.1791
rhand -22.6085 2.45472
rfingers 7.12502
rthumb 3.8212 -27.4908
lclavicle -2.13694e-015 -2.06736e-014
lhumerus -28.2687 8.24796 84.7343
lradius 25.8807
lwrist -8.76436
lhand -13.5163 26.0281
lfingers 7.12502
lthumb 12.5954 55.6284
rfemur -21.2509 0.489176 23.907
rtibia 34.3467
rfoot -21.0883 -7.29408
rtoes 13.0202
lfemur -10.7233 -1.92117 -18.4651
ltibia 24.755
lfoot -17.5667 5.39949
ltoes -10.7705
68
root 12.273 17.7372 3.12838 29.1436 -88.343 -21.5222
lowerback 1.03506 -0.520926 -2.54413
upperback -1.06957 -0.719608 2.44366
thorax -1.61688 -0.320677 3.96165
lowerneck -19.5703 -1.39224 -10.5784
upperneck 37.4861 0.354804 1.05833
head 16.9608 -1.66652 2.27183
rclavicle -1.98785e-015 -6.36111e-015
rhumerus -32.2878 -9.54025 -77.8683
rradius 33.0163
rwrist 20.4647
rhand -22.7336 2.54194
rfingers 7.12502
rthumb 3.70036 -27.4057
lclavicle -1.98785e-015 -6.36111e-015
lhumerus -28.2953 8.21102 84.7592
lradius 26.4578
lwrist -8.30968
lhand -13.6175 25.9771
lfingers 7.12502
lthumb 12.4979 55.5834
rfemur -21.2849 0.389524 23.9747
rtibia 34.4279
rfoot -20.931 -7.12372
rtoes 12.6626
lfemur -10.6681 -2.3404 -18.4245
ltibia 24.7981
lfoot -17.7151 5.81408
ltoes -10.2208
69
root 12.2667 17.731 3.11898 31.9234 -88.5134 -24.3034
lowerback 1.08708 -0.496726 -2.51863
upperback -0.995995 -0.687768 2.40883
thorax -1.57383 -0.306805 3.91031
lowerneck -19.5079 -1.43804 -10.6506
upperneck 37.5833 0.308592 1.00868
head 17.0037 -1.7123 2.25229
rclavicle -8.05078e-015 5.96354e-015
rhumerus -32.1646 -9.33404 -78.0408
rradius 32.8666
rwrist 20.3974
rhand -22.77 2.73334
rfingers 7.12502
rthumb 3.66522 -27.2149
lclavicle -8.05078e-015 5.96354e-015
lhumerus -28.3494 7.89385 84.7913
lradius 27.0204
lwrist -7.55433
lhand -13.613 25.9024
lfingers 7.12502
lthumb 12.5023 55.5084
rfemur -21.3046 0.277319 24.0363
rtibia 34.5129
rfoot -20.8034 -6.8789
rtoes 12.7645
lfemur -10.622 -2.5528 -18.3899
ltibia 24.8596
lfoot -17.6526 6.27598
ltoes -13.0266
70
root 12.262 17.7248 3.10963 32.2331 -88.6546 -24.6227
lowerback 1.18953 -0.47131 -2.55508
upperback -0.941508 -0.656084 2.36038
thorax -1.57823 -0.291087 3.88073
lowerneck -19.4333 -1.50471 -10.7729
upperneck 37.7108 0.212832 1.04211
head 17.0632 -1.77533 2.26945
rclavicle 4.62174e-015 5.1684e-015
rhumerus -32.0738 -9.28098 -78.1534
rradius 32.6915
rwrist 20.5017
rhand -22.8953 3.0426
rfingers 7.12502
rthumb 3.54417 -26.9077
lclavicle 4.62174e-015 5.1684e-015
lhumerus -28.3211 7.04421 84.8747
lradius 27.5511
lwrist -6.40009
lhand -13.5353 25.9249
lfingers 7.12502
lthumb 12.5771 55.5263
rfemur -21.3282 0.212289 24.0284
rtibia 34.5909
rfoot -20.7716 -6.69413
rtoes 13.2016
lfemur -10.6448 -2.3311 -18.409
ltibia 24.9638
lfoot -17.6277 6.28185
ltoes -14.6428
71
root 12.2502 17.7201 3.08623 34.3747 -88.6961 -26.677
lowerback 1.12126 -0.462341 -2.64551
upperback -0.9099 -0.64459 2.31918
thorax -1.5079 -0.286019 3.88784
lowerneck -19.3201 -1.50106 -10.6775
upperneck 37.7664 0.167966 1.00331
head 17.0673 -1.79091 2.22611
rclavicle -2.13694e-015 3.97569e-015
rhumerus -32.1008 -9.53779 -78.203
rradius 32.6391
rwrist 21.068
rhand -22.6038 3.44528
rfingers 7.12502
rthumb 3.82571 -26.5001
lclavicle -2.13694e-015 3.97569e-015
lhumerus -28.4062 7.05876 84.8853
lradius 27.9807
lwrist -6.20546
lhand -13.6913 25.6073
lfingers 7.12502
lthumb 12.4268 55.2179
rfemur -21.4113 0.507237 24.0909
rtibia 34.6572
rfoot -20.9847 -6.76032
rtoes 13.6922
lfemur -10.7868 -1.95313 -18.3072
ltibia 25.0998
lfoot -17.6411 6.06237
ltoes -15.1734
72
root 12.2392 17.7158 3.0753 40.2129 -88.7382 -32.5353
lowerback 1.15682 -0.468079 -2.49144
upperback -0.833902 -0.650498 2.27466
thorax -1.45116 -0.292801 3.75435
lowerneck -19.2237 -1.44108 -10.5633
upperneck 37.7976 0.228717 0.909077
head 17.0543 -1.76759 2.17492
rclavicle 4.57205e-015 -1.94809e-014
rhumerus -32.0887 -9.73256 -78.2006
rradius 32.6333
rwrist 21.8559
rhand -21.8632 3.85067
rfingers 7.12502
rthumb 4.54083 -26.0807
lclavicle 4.57205e-015 -1.94809e-014
lhumerus -28.3865 6.94704 84.8509
lradius 28.3401
lwrist -5.90876
lhand -13.6475 25.3072
lfingers 7.12502
lthumb 12.469 54.9152
rfemur -21.3606 0.662867 24.2009
rtibia 34.6942
rfoot -21.1323 -6.61757
rtoes 14.0118
lfemur -10.8096 -1.46898 -18.185
ltibia 25.2604
lfoot -17.672 5.8659
ltoes -16.1439
73
root 12.2285 17.7139 3.06267 40.4692 -88.7594 -32.7204
lowerback 1.11072 -0.554388 -2.54795
upperback -0.777271 -0.765934 2.34515
thorax -1.35588 -0.352499 3.86073
lowerneck -19.2641 -1.38393 -10.6568
upperneck 37.9001 0.411308 0.747306
head 17.1105 -1.74097 2.15286
rclavicle -2.03754e-015 -7.95139e-016
rhumerus -31.9534 -9.44847 -78.1894
rradius 32.5781
rwrist 22.1749
rhand -21.5912 4.04425
rfingers 7.12502
rthumb 4.80355 -25.8813
lclavicle -2.03754e-015 -7.95139e-016
lhumerus -28.3722 7.06083 84.882
lradius 28.6887
lwrist -5.81386
lhand -13.4692 25.0881
lfingers 7.12502
lthumb 12.6409 54.6856
rfemur -21.4061 0.600803 24.2294
rtibia 34.6991
rfoot -21.2035 -6.42485
rtoes 14.2783
lfemur -10.9551 -1.38839 -18.1553
ltibia 25.4586
lfoot -17.7166 5.8494
ltoes -16.368
74
root 12.2185 17.7151 3.04808 39.8302 -88.7678 -31.9438
lowerback 1.02906 -0.659721 -2.68566
upperback -0.76763 -0.907344 2.45515
thorax -1.28439 -0.423494 4.05428
lowerneck -19.2723 -1.33143 -10.7354
upperneck 37.9525 0.594375 0.542665
head 17.1331 -1.71545 2.1083
rclavicle -3.42904e-015 -2.14687e-014
rhumerus -31.8416 -9.05263 -78.191
rradius 32.4705
rwrist 22.0486
rhand -21.732 4.58345
rfingers 7.12502
rthumb 4.66755 -25.3451
lclavicle -3.42904e-015 -2.14687e-014
lhumerus -28.4208 7.2908 84.9328
lradius 29.0001
lwrist -5.86611
lhand -13.7126 25.1543
lfingers 7.12502
lthumb 12.4062 54.7662
rfemur -21.5308 0.544344 24.2464
rtibia 34.6782
rfoot -21.2298 -6.27306
rtoes 14.547
lfemur -11.1614 -1.8058 -18.1277
ltibia 25.6932
lfoot -17.8183 6.16283
ltoes -15.8528
75
root 12.2049 17.7143 3.03228 42.4791 -88.7698 -34.5323
lowerback 1.01009 -0.711639 -2.68004
upperback -0.765324 -0.976339 2.48313
thorax -1.26477 -0.458567 4.08107
lowerneck -19.171 -1.29851 -10.6645
upperneck 37.9652 0.658714 0.371115
head 17.1126 -1.70804 2.0295
rclavicle -5.66536e-015 -9.54166e-015
rhumerus -31.8442 -9.05477 -78.1823
rradius 32.2925
rwrist 22.0772
rhand -21.7549 5.53065
rfingers 7.12502
rthumb 4.64547 -24.3984
lclavicle -5.66536e-015 -9.54166e-015
lhumerus -28.4946 7.39892 84.9034
lradius 29.2616
lwrist -5.96651
lhand -13.7957 25.1313
lfingers 7.12502
lthumb 12.3261 54.748
rfemur -21.5591 0.469986 24.3436
rtibia 34.6836
rfoot -21.2601 -6.09111
rtoes 14.7343
lfemur -11.2883 -1.7208 -18.0446
ltibia 25.903
lfoot -17.8838 6.2392
ltoes -16.2951
76
root 12.1912 17.7128 3.02008 44.7419 -88.7801 -36.7295
lowerback 0.981194 -0.720969 -2.5497
upperback -0.76602 -0.986533 2.44628
thorax -1.25097 -0.465203 3.9687
lowerneck -19.0737 -1.3236 -10.7535
upperneck 38.0576 0.599218 0.437307
head 17.1424 -1.74426 2.06248
rclavicle 7.15625e-015 -1.59028e-015
rhumerus -31.9034 -9.28675 -78.1408
rradius 32.205
rwrist 22.3783
rhand -21.6218 6.04151
rfingers 7.12502
rthumb 4.774 -23.8847
lclavicle 7.15625e-015 -1.59028e-015
lhumerus -28.6077 7.00813 84.9376
lradius 29.6357
lwrist -5.66704
lhand -13.6687 24.9874
lfingers 7.12502
lthumb 12.4485 54.5967
rfemur -21.6043 0.391 24.4328
rtibia 34.7338
rfoot -21.3307 -5.91682
rtoes 14.6398
lfemur -11.4267 -1.24956 -17.9735
ltibia 26.0482
lfoot -17.9723 5.84564
ltoes -15.7846
